# xmcd CD database file
#
# Track frame offsets:
#	150
#	2725
#	17580
#	27728
#	34456
#	49999
#	69500
#	97720
#	102959
#	106362
#	112108
#	125537
#	140104
#	143394
#	146423
#	150097
#	156729
#	160108
#	163778
#	166938
#	170108
#	177008
#	182246
#	202876
#	210731
#	236040
#	267274
#	272453
#	300182
#	317569
#
# Disc length: 4372 seconds
#
# Revision: 0
# Processed by: cddbd v1.5.2PL0 Copyright (c) Steve Scherf et al.
# Submitted via: CD2WAV32(JP) R3.22
#
DISCID=9d11121e
DTITLE=横山だいすけ and 三谷たくみ - しゃぼんだまじょとないないらんど
DYEAR=2015
DGENRE=JPop
TTITLE0=はじまり・はじまり!
TTITLE1=シャラララうちゅうせん
TTITLE2=てをたたこ
TTITLE3=おーい!
TTITLE4=ポコポッテイト
TTITLE5=虹色メロディー
TTITLE6=まほうのとびら
TTITLE7=はるがきた ~四季のうた メドレー~
TTITLE8=ポップンポップコーン ~四季のうた メドレー~
TTITLE9=秋のマーチ ~四季のうた メドレー~
TTITLE10=ゆきふるるん ~四季のうた メドレー~
TTITLE11=おさんぽクンクン
TTITLE12=うたのどうぶつえん (はじまり) ~メドレー うたのどうぶつえん~
TTITLE13=パンダ うさぎ コアラ ~メドレー うたのどうぶつえん~
TTITLE14=ゴリラのおんがくかい ~メドレー うたのどうぶつえん~
TTITLE15=ジャングルポケット ~メドレー うたのどうぶつえん~
TTITLE16=森のくまさん ~メドレー うたのどうぶつえん~
TTITLE17=たぬきのレストラン ~メドレー うたのどうぶつえん~
TTITLE18=しまうまグルグル ~メドレー うたのどうぶつえん~
TTITLE19=ぞうさん ~メドレー うたのどうぶつえん~
TTITLE20=アイアイ ~メドレー うたのどうぶつえん~
TTITLE21=うたのどうぶつえん (おわり) ~メドレー うたのどうぶつえん~
TTITLE22=野原がぼくらの遊園地
TTITLE23=大きな栗の木の下で
TTITLE24=ブンバ・ボーン!
TTITLE25=しゃぼんだまいっぱい
TTITLE26=いぬのおまわりさん
TTITLE27=ぼよよん行進曲
TTITLE28=ありがとうの花
TTITLE29=バイ・バイ・バイ!
EXTD=
EXTT0=だいたく
EXTT1=
EXTT2=
EXTT3=
EXTT4=
EXTT5=
EXTT6=
EXTT7=
EXTT8=
EXTT9=
EXTT10=
EXTT11=
EXTT12=
EXTT13=
EXTT14=
EXTT15=
EXTT16=
EXTT17=
EXTT18=
EXTT19=
EXTT20=
EXTT21=
EXTT22=
EXTT23=
EXTT24=
EXTT25=
EXTT26=
EXTT27=
EXTT28=
EXTT29=
PLAYORDER=
